<svg width="67" height="396" viewBox="0 0 67 396" fill="none" xmlns="http://www.w3.org/2000/svg">
<path d="M34.0001 0.566243L19.5663 15L34.0001 29.4338L48.4338 15L34.0001 0.566243ZM34 396L48.4338 371L19.5663 371L34 396ZM31.5001 15L31.5 373.5L36.5 373.5L36.5001 15L31.5001 15Z" fill="#FFC20B"/>
<rect y="142" width="67" height="67" fill="#FFC20B"/>
<path d="M34.0078 163.509L24.7463 190H16.4679L7.20635 163.509H14.9674L20.4691 182.463H20.7451L26.2296 163.509H34.0078ZM59.3234 171.063L52.5971 171.477C52.4821 170.902 52.2349 170.385 51.8555 169.925C51.4761 169.453 50.9759 169.08 50.355 168.804C49.7456 168.516 49.0155 168.373 48.1647 168.373C47.0264 168.373 46.0663 168.614 45.2845 169.097C44.5026 169.568 44.1117 170.201 44.1117 170.994C44.1117 171.626 44.3647 172.161 44.8706 172.598C45.3765 173.035 46.2446 173.386 47.4748 173.65L52.2694 174.616C54.8449 175.145 56.7651 175.996 58.0299 177.168C59.2946 178.341 59.927 179.882 59.927 181.791C59.927 183.527 59.4153 185.05 58.392 186.361C57.3802 187.672 55.989 188.695 54.2183 189.431C52.4591 190.155 50.4298 190.517 48.1302 190.517C44.6234 190.517 41.8294 189.787 39.7483 188.327C37.6787 186.855 36.4656 184.855 36.1092 182.325L43.3356 181.946C43.5541 183.015 44.083 183.831 44.9223 184.395C45.7616 184.947 46.8367 185.223 48.1474 185.223C49.4352 185.223 50.47 184.975 51.2519 184.481C52.0452 183.975 52.4476 183.325 52.4591 182.532C52.4476 181.865 52.1659 181.319 51.614 180.894C51.0622 180.457 50.2113 180.123 49.0615 179.893L44.4739 178.979C41.8869 178.462 39.961 177.565 38.6962 176.289C37.4429 175.013 36.8163 173.386 36.8163 171.408C36.8163 169.706 37.2762 168.24 38.1961 167.01C39.1274 165.78 40.4324 164.831 42.1111 164.164C43.8013 163.497 45.7789 163.164 48.044 163.164C51.3898 163.164 54.0228 163.871 55.943 165.285C57.8746 166.7 59.0014 168.625 59.3234 171.063Z" fill="black"/>
</svg>
